Coordinates
version=1
nRows=5
nColumns=107
inDegrees=yes

Units are S.I. units (second, meters, Newtons, ...)
If the header above contains a line with 'inDegrees', this indicates whether rotational values are in degrees (yes) or radians (no).

endheader
time	sternoclavicular_r2	sternoclavicular_r3	unrotscap_r3	unrotscap_r2	acromioclavicular_r2	acromioclavicular_r3	acromioclavicular_r1	unrothum_r1	unrothum_r3	unrothum_r2	elv_angle	shoulder_elv	shoulder1_r2	shoulder_rot	elbow_flexion	pro_sup	deviation	flexion	proximal_distal_r1	proximal_distal_r3	cmc_flexion	cmc_abduction	mp_flexion	ip_flexion	mcp2_flexion	mcp2_abduction	pm2_flexion	md2_flexion	mcp3_flexion	mcp3_abduction	pm3_flexion	md3_flexion	mcp4_flexion	mcp4_abduction	pm4_flexion	md4_flexion	mcp5_flexion	mcp5_abduction	pm5_flexion	md5_flexion	bicpt_tx	bicpt_ty	bicpt_tz	bicpt2_tx	bicpt2_ty	bicpt2_tz	ptpt_tx	ptpt_ty	ptpt_tz	FCUpt_tx	FCUpt_ty	FCUpt_tz	EDCpt_tx	EDCpt_ty	EDCpt_tz	APLpt_tx	APLpt_ty	APLpt_tz	FPLpt_tx	FPLpt_ty	FPLpt_tz	FPLpt2_tx	FPLpt2_ty	FPLpt2_tz	PEC1pt2_tx	PEC1pt2_ty	PEC1pt2_tz	PEC1pt3_tx	PEC1pt3_ty	PEC1pt3_tz	PEC2pt2_tx	PEC2pt2_ty	PEC2pt2_tz	PEC2pt3_tx	PEC2pt3_ty	PEC2pt3_tz	PEC3pt2_tx	PEC3pt2_ty	PEC3pt2_tz	PEC3pt3_tx	PEC3pt3_ty	PEC3pt3_tz	DELT2pt2a_tx	DELT2pt2a_ty	DELT2pt2a_tz	DELT2pt2_tx	DELT2pt2_ty	DELT2pt2_tz	LAT1pt2_tx	LAT1pt2_ty	LAT1pt2_tz	LAT1pt3_tx	LAT1pt3_ty	LAT1pt3_tz	LAT2pt2_tx	LAT2pt2_ty	LAT2pt2_tz	LAT2pt3_tx	LAT2pt3_ty	LAT2pt3_tz	LAT3pt2_tx	LAT3pt2_ty	LAT3pt2_tz	LAT3pt3_tx	LAT3pt3_ty	LAT3pt3_tz
      0.50000000	     -0.32243586	      0.13656861	     -0.13656861	      0.32243586	     -0.06528670	      0.52762417	      0.23716343	     -0.23716343	     -0.52762417	      0.06528670	    100.14244801	     76.33955620	     -1.74781544	    -27.50886474	     28.61492563	     66.91020079	      0.31172150	     -0.63688613	      0.34351548	     -0.31844306	     23.43295839	    -18.77177509	     -3.24678348	     -0.28380597	     87.02474113	     11.13875696	     80.75948652	     64.69140519	     86.44052662	      1.05726856	     84.43134080	     55.44729191	     74.76778129	    -10.50525338	     98.11337812	     41.00331834	     64.40732268	    -13.30464452	     93.54544310	      5.64711768	      0.00084649	     -0.03087971	     -0.00482828	      0.01579634	     -0.01797338	     -0.00408966	      0.00260609	     -0.06809681	     -0.00543998	      0.01060127	     -0.18283246	     -0.00030478	     -0.00802921	      0.00258667	     -0.00024300	      0.00031194	      0.00012478	      0.00062388	      0.00039929	      0.00119786	      0.00067379	      0.00000366	     -0.00028077	     -0.00033692	      0.00250224	      0.00877906	      0.00610717	     -0.00818530	      0.01976348	     -0.01874562	      0.00250224	      0.00877906	      0.00610717	      0.00055134	      0.01832151	     -0.00962727	      0.00395447	      0.00488192	      0.01598358	      0.00000000	      0.00779404	      0.00000000	     -0.00716744	     -0.03312291	     -0.00642662	      0.01773222	     -0.00067298	     -0.00632447	     -0.00089063	      0.01492864	     -0.00610717	      0.00245983	      0.02154474	     -0.01781258	     -0.00597994	      0.01293532	     -0.00547101	     -0.01246880	      0.02731262	     -0.03057826	     -0.02341082	      0.01446212	     -0.00733709	     -0.01552239	      0.03155371	     -0.03821222
      0.53333333	     -0.32127529	      0.13607705	     -0.13607705	      0.32127529	     -0.06505171	      0.52572505	      0.23630979	     -0.23630979	     -0.52572505	      0.06505171	    100.57503557	     76.06478055	     -1.75536552	    -29.30986589	     28.32794388	     67.14741245	      0.26863768	     -0.73416703	      0.30551060	     -0.36708351	     22.96243586	    -18.45360184	     -2.69525146	     -0.32506790	     87.20413193	     10.96772211	     80.35222291	     66.35491192	     86.72131913	      0.85810939	     84.21290816	     56.76803680	     75.01370334	    -10.63160120	     98.60450047	     40.72079337	     64.66699278	    -13.34945693	     94.34169224	      5.64250412	      0.00083700	     -0.03084682	     -0.00482298	      0.01578215	     -0.01789542	     -0.00405536	      0.00258856	     -0.06810815	     -0.00545908	      0.01062713	     -0.18282570	     -0.00030164	     -0.00805767	      0.00259830	     -0.00024817	      0.00029984	      0.00011994	      0.00059968	      0.00038379	      0.00115138	      0.00064765	      0.00000473	     -0.00028113	     -0.00033736	      0.00249324	      0.00874746	      0.00608519	     -0.00815584	      0.01969234	     -0.01867815	      0.00249324	      0.00874746	      0.00608519	      0.00054936	      0.01825556	     -0.00959262	      0.00394407	      0.00486435	      0.01595817	      0.00000000	      0.00773764	      0.00000000	     -0.00714164	     -0.03300369	     -0.00637980	      0.01856890	     -0.00073361	     -0.00716569	     -0.00088742	      0.01487490	     -0.00608519	      0.00245098	      0.02146719	     -0.01774846	     -0.00595841	      0.01288877	     -0.00545131	     -0.01242392	      0.02721431	     -0.03046820	     -0.02332655	      0.01441006	     -0.00731068	     -0.01546652	      0.03144014	     -0.03807468
      0.56666667	     -0.32124164	      0.13606280	     -0.13606280	      0.32124164	     -0.06504490	      0.52566999	      0.23628504	     -0.23628504	     -0.52566999	      0.06504490	    100.57769953	     76.05681451	     -1.75541201	    -29.30760171	     28.32844132	     67.14784780	      0.26864118	     -0.73415843	      0.30551381	     -0.36707921	     22.96379440	    -18.45353381	     -2.69468945	     -0.32493748	     87.20401053	     10.96770529	     80.35221310	     66.35472058	     86.72092765	      0.85802576	     84.21297623	     56.76791683	     75.01386516	    -10.63162742	     98.60404263	     40.72070670	     64.66676826	    -13.34949089	     94.34116888	      5.64243621	      0.00083702	     -0.03084687	     -0.00482299	      0.01578208	     -0.01789556	     -0.00405528	      0.00258853	     -0.06810817	     -0.00545912	      0.01062718	     -0.18282569	     -0.00030162	     -0.00805772	      0.00259832	     -0.00024819	      0.00029977	      0.00011991	      0.00059954	      0.00038371	      0.00115112	      0.00064750	      0.00000473	     -0.00028113	     -0.00033736	      0.00249298	      0.00874654	      0.00608455	     -0.00815499	      0.01969028	     -0.01867619	      0.00249298	      0.00874654	      0.00608455	      0.00054930	      0.01825365	     -0.00959162	      0.00394377	      0.00486384	      0.01595743	      0.00000000	      0.00773601	      0.00000000	     -0.00714090	     -0.03300023	     -0.00637845	      0.01856787	     -0.00073353	     -0.00716461	     -0.00088733	      0.01487335	     -0.00608455	      0.00245072	      0.02146494	     -0.01774661	     -0.00595779	      0.01288742	     -0.00545074	     -0.01242262	      0.02721146	     -0.03046501	     -0.02332411	      0.01440855	     -0.00730991	     -0.01546490	      0.03143684	     -0.03807069
      0.60000000	     -0.32241993	      0.13656187	     -0.13656187	      0.32241993	     -0.06528348	      0.52759810	      0.23715172	     -0.23715172	     -0.52759810	      0.06528348	    100.12872631	     76.33578501	     -1.74757595	    -27.46315114	     28.64950866	     66.90310626	      0.31373037	     -0.62706348	      0.34521331	     -0.31353174	     23.57934490	    -18.65515890	     -2.83833793	      0.05685667	     86.97183513	     11.12829421	     80.88500796	     65.06890429	     86.37774856	      1.07971376	     84.52193603	     55.60353502	     74.80155766	    -10.52369703	     98.20473675	     40.82307431	     64.46835808	    -13.30193632	     93.60512321	      5.65565126	      0.00084764	     -0.03088367	     -0.00482891	      0.01579686	     -0.01798278	     -0.00409074	      0.00260662	     -0.06809647	     -0.00543940	      0.01060049	     -0.18283267	     -0.00030490	     -0.00802835	      0.00258631	     -0.00024283	      0.00031228	      0.00012491	      0.00062457	      0.00039972	      0.00119917	      0.00067454	      0.00000333	     -0.00028061	     -0.00033673	      0.00250212	      0.00877862	      0.00610687	     -0.00818490	      0.01976250	     -0.01874469	      0.00250212	      0.00877862	      0.00610687	      0.00055131	      0.01832060	     -0.00962680	      0.00395433	      0.00488168	      0.01598324	      0.00000000	      0.00779325	      0.00000000	     -0.00716709	     -0.03312128	     -0.00642597	      0.01771105	     -0.00067144	     -0.00630304	     -0.00089058	      0.01492790	     -0.00610687	      0.00245971	      0.02154367	     -0.01781170	     -0.00597964	      0.01293469	     -0.00547074	     -0.01246819	      0.02731127	     -0.03057675	     -0.02340966	      0.01446140	     -0.00733672	     -0.01552162	      0.03155215	     -0.03821033
      0.63333333	     -0.32172432	      0.13626724	     -0.13626724	      0.32172432	     -0.06514263	      0.52645983	      0.23664007	     -0.23664007	     -0.52645983	      0.06514263	    100.23385748	     76.17109325	     -1.74941084	    -28.19842922	     28.78582018	     67.34385271	      0.30541290	     -0.63564524	      0.33814048	     -0.31782262	     22.99960139	    -18.65431486	     -1.50643648	     -0.74535979	     86.88391323	     10.98490839	     80.18070863	     67.23077356	     86.14100091	      0.84784336	     84.44907562	     57.15676599	     74.74811063	    -10.61845158	     98.32658556	     41.02040757	     64.01880795	    -13.30992977	     93.90584608	      5.64690201	      0.00085215	     -0.03089929	     -0.00483143	      0.01577024	     -0.01801981	     -0.00402687	      0.00257405	     -0.06811753	     -0.00547491	      0.01064856	     -0.18282009	     -0.00029900	     -0.00808124	      0.00260794	     -0.00025249	      0.00031199	      0.00012479	      0.00062397	      0.00039934	      0.00119803	      0.00067389	      0.00000465	     -0.00028111	     -0.00033733	      0.00249672	      0.00875968	      0.00609369	     -0.00816724	      0.01971987	     -0.01870425	      0.00249672	      0.00875968	      0.00609369	      0.00055013	      0.01828108	     -0.00960603	      0.00394810	      0.00487115	      0.01596802	      0.00000000	      0.00775943	      0.00000000	     -0.00715163	     -0.03304982	     -0.00639790	      0.01805768	     -0.00069608	     -0.00664168	     -0.00088866	      0.01489569	     -0.00609369	      0.00245440	      0.02149719	     -0.01777327	     -0.00596674	      0.01290678	     -0.00545893	     -0.01244129	      0.02725235	     -0.03051078	     -0.02335915	      0.01443020	     -0.00732089	     -0.01548814	      0.03148408	     -0.03812790
